<?xml version="1.0" standalone="no"?>
<!DOCTYPE svg PUBLIC "-//W3C//DTD SVG 20010904//EN"
 "http://www.w3.org/TR/2001/REC-SVG-20010904/DTD/svg10.dtd">
<svg version="1.0" xmlns="http://www.w3.org/2000/svg"
 width="184.000000pt" height="184.000000pt" viewBox="0 0 184.000000 184.000000"
 preserveAspectRatio="xMidYMid meet">
<metadata>
Created by potrace 1.14, written by Peter Selinger 2001-2017
</metadata>
<g transform="translate(0.000000,184.000000) scale(0.100000,-0.100000)"
fill="#000000" stroke="none">
<path d="M0 920 l0 -920 920 0 920 0 0 920 0 920 -920 0 -920 0 0 -920z m532
196 c-3 -5 0 -6 6 -2 6 3 18 -1 26 -10 15 -14 16 -12 18 23 0 21 5 -65 9 -192
9 -264 3 -300 -54 -330 l-32 -16 30 6 c49 12 78 10 111 -7 19 -10 61 -18 111
-19 65 -2 86 -7 108 -25 l27 -22 -28 -31 c-17 -20 -36 -31 -49 -29 -11 1 -31
-5 -45 -15 -13 -9 -31 -17 -38 -17 -8 0 -26 -13 -41 -29 -31 -33 -97 -57 -133
-48 -16 4 -31 20 -42 45 -10 21 -30 50 -45 65 -41 38 -46 76 -16 104 31 27 18
33 -76 33 l-69 0 -1 198 c-1 108 -1 208 -1 222 -2 84 3 163 10 154 4 -6 22
-10 40 -8 l32 2 0 -248 0 -248 23 -6 c36 -9 81 8 94 35 9 17 13 97 14 269 1
147 5 227 9 200 4 -25 5 -49 2 -54z m124 -46 c8 0 14 -7 14 -15 0 -8 -7 -15
-15 -15 -13 0 -15 -16 -13 -102 2 -57 6 -101 9 -98 3 3 13 -1 22 -9 15 -12 17
-11 18 10 2 37 17 -70 18 -129 l1 -53 68 3 67 3 5 230 c3 127 7 190 9 140 l3
-90 12 54 c6 30 17 56 24 59 6 2 12 13 13 25 1 20 2 20 9 -3 14 -44 12 -444
-2 -463 -11 -13 -36 -17 -130 -20 -64 -1 -126 0 -137 5 -21 7 -21 12 -19 275
1 147 3 251 5 231 3 -25 9 -38 19 -38z m646 13 c4 9 14 17 23 17 8 0 15 6 16
13 1 28 18 -31 18 -68 l1 -40 67 0 68 0 3 -32 3 -33 -70 0 -71 0 0 -141 0
-140 73 2 72 2 3 -31 3 -32 -115 0 -116 0 0 88 c0 48 -3 97 -6 109 -12 45 -24
10 -24 -70 0 -124 -3 -127 -149 -127 -78 0 -121 4 -129 12 -9 9 -12 79 -11
257 1 136 3 239 6 230 5 -19 40 -32 49 -18 19 31 24 -11 24 -206 l0 -216 63 3
62 3 3 39 c6 66 -3 83 -38 78 -27 -4 -30 -1 -30 21 0 14 5 29 11 33 6 3 8 17
5 29 -4 14 1 36 12 54 15 28 21 30 52 25 19 -3 47 -12 62 -19 24 -11 27 -11
32 9 3 11 6 59 7 106 1 54 4 74 8 55 5 -24 8 -26 13 -12z m-605 -85 c-2 -24
-4 -7 -4 37 0 44 2 63 4 43 2 -21 2 -57 0 -80z m953 -97 c8 -17 6 -20 -20 -26
-16 -4 -32 -15 -35 -26 -9 -26 -32 -24 -38 4 -2 12 -8 31 -12 41 -7 16 -5 18
8 13 9 -3 19 -2 22 3 11 18 64 11 75 -9z"/>
</g>
</svg>
